<svg width="28" height="28" viewBox="0 0 28 28" fill="none" xmlns="http://www.w3.org/2000/svg">
<path d="M18.6673 15.1667V5.83333H7.00065V15.1667C7.00065 15.7855 7.24648 16.379 7.68407 16.8166C8.12165 17.2542 8.71515 17.5 9.33398 17.5H16.334C16.9528 17.5 17.5463 17.2542 17.9839 16.8166C18.4215 16.379 18.6673 15.7855 18.6673 15.1667ZM5.83398 3.5H23.334C23.9528 3.5 24.5463 3.74583 24.9839 4.18342C25.4215 4.621 25.6673 5.21449 25.6673 5.83333V9.33333C25.6673 9.95217 25.4215 10.5457 24.9839 10.9832C24.5463 11.4208 23.9528 11.6667 23.334 11.6667H21.0007V15.1667C21.0007 16.4043 20.509 17.5913 19.6338 18.4665C18.7586 19.3417 17.5717 19.8333 16.334 19.8333H9.33398C8.09631 19.8333 6.90932 19.3417 6.03415 18.4665C5.15898 17.5913 4.66732 16.4043 4.66732 15.1667V4.66667C4.66732 4.35725 4.79023 4.0605 5.00903 3.84171C5.22782 3.62292 5.52457 3.5 5.83398 3.5ZM21.0007 5.83333V9.33333H23.334V5.83333H21.0007ZM2.33398 22.1667H23.334V24.5H2.33398V22.1667Z" fill="black"/>
</svg>
