<svg width="28" height="28" viewBox="0 0 28 28" fill="none" xmlns="http://www.w3.org/2000/svg">
<path d="M22.1673 7H18.6673V5.83333C18.6673 5.21449 18.4215 4.621 17.9839 4.18342C17.5463 3.74583 16.9528 3.5 16.334 3.5H11.6673C11.0485 3.5 10.455 3.74583 10.0174 4.18342C9.57982 4.621 9.33398 5.21449 9.33398 5.83333V7H5.83398C4.90573 7 4.01549 7.36875 3.35911 8.02513C2.70273 8.6815 2.33398 9.57174 2.33398 10.5V21C2.33398 21.9283 2.70273 22.8185 3.35911 23.4749C4.01549 24.1313 4.90573 24.5 5.83398 24.5H22.1673C23.0956 24.5 23.9858 24.1313 24.6422 23.4749C25.2986 22.8185 25.6673 21.9283 25.6673 21V10.5C25.6673 9.57174 25.2986 8.6815 24.6422 8.02513C23.9858 7.36875 23.0956 7 22.1673 7ZM11.6673 5.83333H16.334V7H11.6673V5.83333ZM23.334 21C23.334 21.3094 23.2111 21.6062 22.9923 21.825C22.7735 22.0438 22.4767 22.1667 22.1673 22.1667H5.83398C5.52457 22.1667 5.22782 22.0438 5.00903 21.825C4.79023 21.6062 4.66732 21.3094 4.66732 21V15.1667H9.33398V16.3333C9.33398 16.6428 9.4569 16.9395 9.67569 17.1583C9.89449 17.3771 10.1912 17.5 10.5007 17.5C10.8101 17.5 11.1068 17.3771 11.3256 17.1583C11.5444 16.9395 11.6673 16.6428 11.6673 16.3333V15.1667H16.334V16.3333C16.334 16.6428 16.4569 16.9395 16.6757 17.1583C16.8945 17.3771 17.1912 17.5 17.5007 17.5C17.8101 17.5 18.1068 17.3771 18.3256 17.1583C18.5444 16.9395 18.6673 16.6428 18.6673 16.3333V15.1667H23.334V21ZM23.334 12.8333H4.66732V10.5C4.66732 10.1906 4.79023 9.89383 5.00903 9.67504C5.22782 9.45625 5.52457 9.33333 5.83398 9.33333H22.1673C22.4767 9.33333 22.7735 9.45625 22.9923 9.67504C23.2111 9.89383 23.334 10.1906 23.334 10.5V12.8333Z" fill="black"/>
</svg>
