<svg width="28" height="28" viewBox="0 0 28 28" fill="none" xmlns="http://www.w3.org/2000/svg">
<path d="M13.9224 13.4556C16.0224 13.4556 17.6558 11.7445 17.6558 9.64447C17.6558 7.54447 15.9447 5.91113 13.8447 5.91113C11.7447 5.91113 10.1113 7.62224 10.1113 9.64447C10.1113 11.7445 11.8224 13.4556 13.9224 13.4556ZM13.8447 7.46669C13.9224 7.46669 13.9224 7.46669 13.8447 7.46669C15.0891 7.46669 16.1002 8.4778 16.1002 9.72224C16.1002 10.9667 15.0891 11.9 13.8447 11.9C12.6002 11.9 11.6669 10.8889 11.6669 9.72224C11.6669 8.4778 12.678 7.46669 13.8447 7.46669Z" fill="black"/>
<path d="M25.4327 12.9889C23.9549 11.6667 22.0105 10.9666 19.9882 11.0444H19.366C19.2105 11.6666 18.9771 12.2111 18.666 12.6778C19.1327 12.6 19.5216 12.6 19.9882 12.6C21.466 12.5222 22.9438 12.9889 24.1105 13.8444V19.4444H25.666V13.2222L25.4327 12.9889Z" fill="black"/>
<path d="M18.2002 6.0667C18.5891 5.13337 19.678 4.6667 20.6891 5.05559C21.6224 5.44448 22.0891 6.53337 21.7002 7.54448C21.3891 8.24448 20.6891 8.71115 19.9891 8.71115C19.8336 8.71115 19.6002 8.71115 19.4447 8.63337C19.5224 9.02226 19.5224 9.41115 19.5224 9.72226V10.1889C19.678 10.1889 19.8336 10.2667 19.9891 10.2667C21.9335 10.2667 23.4891 8.71115 23.4891 6.84448C23.4891 4.90004 21.9335 3.34448 20.0669 3.34448C18.8224 3.34448 17.7336 3.9667 17.1113 5.05559C17.5002 5.28893 17.8891 5.60004 18.2002 6.0667Z" fill="black"/>
<path d="M9.33398 12.7555C9.02287 12.2889 8.78954 11.7444 8.63399 11.1222H8.01176C5.98954 11.0444 4.0451 11.7444 2.56732 12.9889L2.33398 13.2222V19.4444H3.88954V13.8444C5.13398 12.9889 6.53399 12.5222 8.01176 12.6C8.47843 12.6 8.9451 12.6778 9.33398 12.7555Z" fill="black"/>
<path d="M8.01071 10.1889C8.16627 10.1889 8.32182 10.1889 8.47738 10.1111V9.64447C8.47738 9.25558 8.47738 8.8667 8.55516 8.55558C8.3996 8.63336 8.16627 8.63336 8.01071 8.63336C6.9996 8.63336 6.14405 7.77781 6.14405 6.7667C6.14405 5.75558 6.9996 4.90003 8.01071 4.90003C8.78849 4.90003 9.48849 5.3667 9.7996 6.0667C10.1107 5.67781 10.5774 5.28892 10.9663 4.97781C9.95516 3.34447 7.85516 2.80003 6.22183 3.81114C4.58849 4.82225 4.04405 6.92225 5.05516 8.55558C5.67738 9.5667 6.76627 10.1889 8.01071 10.1889Z" fill="black"/>
<path d="M20.2996 17.6555L20.144 17.4222C18.5885 15.7111 16.4107 14.7 14.0773 14.7777C11.744 14.7 9.48845 15.7111 7.9329 17.4222L7.77734 17.6555V23.5666C7.77734 24.2666 8.32179 24.8889 9.09957 24.8889H19.0551C19.7551 24.8889 20.3773 24.2666 20.3773 23.5666V17.6555H20.2996ZM18.744 23.3333H9.3329V18.2C10.5773 16.9555 12.2885 16.3333 14.0773 16.3333C15.7885 16.2555 17.4996 16.9555 18.744 18.2V23.3333Z" fill="black"/>
</svg>
