<svg width="32" height="32" viewBox="0 0 32 32" fill="none" xmlns="http://www.w3.org/2000/svg">
<path d="M16 1C7.7155 1 1 7.716 1 16C1 24.284 7.7155 31 16 31C24.284 30.9995 31 24.284 31 16C31 7.716 24.284 1 16 1ZM16.001 30C13.2405 29.998 11.001 27.801 11.001 23.422V21.4245C11.001 21.159 11.0575 21 11.412 21H11.7765V22.76C11.7765 27.1995 13.436 29.187 16.0005 29.1885C18.566 29.1885 20.2215 27.2 20.2225 22.759V21H20.589C20.943 21 21 21.1585 21 21.4245V23.422C21.001 27.801 18.7615 29.998 16.001 30ZM12.179 22.76V21H19.82V22.759C19.82 26.933 18.3225 28.7475 16.001 28.7475C13.6805 28.746 12.179 26.9315 12.179 22.76ZM20.247 29.0655C21.066 28.1175 21.676 26.7805 21.9005 24.976C23.602 23.522 24.501 21.4825 24.501 19.5C24.501 19.2535 24.305 19 23.9385 19H8.063C7.6965 19 7.5 19.2535 7.5 19.5C7.5 21.4825 8.399 23.522 10.1015 24.976C10.326 26.789 10.9415 28.13 11.7655 29.0785C6.25 27.289 2.25 22.1045 2.25 16C2.25 8.418 8.418 2.25 16 2.25C23.5815 2.25 29.75 8.418 29.75 16C29.75 22.0985 25.754 27.2705 20.247 29.0655Z" fill="white"/>
<path d="M9.48417 10.3798C9.48417 9.17025 12.1112 9.75225 12.9967 10.5733C13.5187 9.71625 13.2707 8.99425 13.2707 8.99425C13.2707 8.99425 12.5102 8.45675 11.3907 8.25075L11.3882 7.12675C10.4692 6.84375 9.48167 7.12675 9.48167 7.12675V8.17125C9.48167 8.17125 7.66867 8.50475 7.66867 10.3803C7.66867 12.8093 11.3897 12.3398 11.3897 13.9048C11.3897 15.0458 8.89117 14.5703 7.66867 13.6603C7.28917 14.5793 7.66867 15.3723 7.66867 15.3723C8.24825 15.6193 8.85727 15.7905 9.48067 15.8818L9.48367 16.8678C9.48367 16.8678 10.4712 17.1688 11.3902 16.8678V15.8158C11.3902 15.8158 13.5007 15.6998 13.5007 13.9053C13.5007 11.5728 9.48417 11.7743 9.48417 10.3798Z" fill="white"/>
<path d="M20.4842 10.3798C20.4842 9.17025 23.1112 9.75225 23.9967 10.5733C24.5187 9.71625 24.2707 8.99425 24.2707 8.99425C24.2707 8.99425 23.5102 8.45675 22.3907 8.25075L22.3882 7.12675C21.4692 6.84375 20.4817 7.12675 20.4817 7.12675V8.17125C20.4817 8.17125 18.6687 8.50475 18.6687 10.3803C18.6687 12.8093 22.3897 12.3398 22.3897 13.9048C22.3897 15.0458 19.8912 14.5703 18.6687 13.6603C18.2892 14.5793 18.6687 15.3723 18.6687 15.3723C19.2483 15.6192 19.8573 15.7905 20.4807 15.8818L20.4837 16.8678C20.4837 16.8678 21.4712 17.1688 22.3902 16.8678V15.8158C22.3902 15.8158 24.5007 15.6998 24.5007 13.9053C24.5007 11.5728 20.4842 11.7743 20.4842 10.3798Z" fill="white"/>
<path d="M15.3646 27.3084L15.3661 27.9494C15.3661 27.9494 15.9826 28.1449 16.5576 27.9494V27.2659C16.5576 27.2659 17.8771 27.1899 17.8771 26.0239C17.8771 24.5084 15.3666 24.6389 15.3666 23.7329C15.3666 22.9469 17.0091 23.3254 17.5621 23.8589C17.8881 23.3024 17.7341 22.8324 17.7341 22.8324C17.7341 22.8324 17.2586 22.4829 16.5581 22.3489L16.5571 21.6179C15.9831 21.4339 15.3656 21.6179 15.3656 21.6179V22.2969C15.3656 22.2969 14.2326 22.5139 14.2326 23.7324C14.2326 25.3114 16.5576 25.0064 16.5576 26.0234C16.5576 26.7649 14.9961 26.4559 14.2326 25.8644C14.0917 26.2222 14.0917 26.6201 14.2326 26.9779C14.5935 27.1382 14.9742 27.2494 15.3646 27.3084Z" fill="white"/>
</svg>
