<svg width="32" height="32" viewBox="0 0 32 32" fill="none" xmlns="http://www.w3.org/2000/svg">
<path d="M14.1132 17.8051L15.2646 17.1398L13.7715 15.8838L14.1132 17.8051Z" fill="white"/>
<path d="M28.3389 15.9872C28.3389 15.704 28.1997 15.4551 27.9879 15.2989L27.9923 15.2912L25.0087 13.5687L26.7261 10.5939L26.7203 10.5904C26.7746 10.4678 26.7992 10.3342 26.7921 10.2003C26.7851 10.0664 26.7466 9.93607 26.6797 9.81986C26.6124 9.70375 26.5186 9.60517 26.406 9.53211C26.2934 9.45905 26.1652 9.41357 26.0317 9.39938V9.39106H22.5859V5.95522H22.5789C22.5646 5.82192 22.519 5.69388 22.446 5.58146C22.3729 5.46905 22.2744 5.37542 22.1584 5.30818C22.042 5.24113 21.9114 5.20256 21.7773 5.19561C21.6432 5.18865 21.5093 5.21352 21.3866 5.26818L21.3824 5.26082L18.3485 7.0125L16.6685 4.10242L16.6624 4.10594C16.5833 3.99769 16.4799 3.90959 16.3604 3.84877C16.2409 3.78795 16.1088 3.75612 15.9747 3.75586C15.6915 3.75586 15.4423 3.89506 15.2864 4.1069L15.2787 4.10242L13.5709 7.0605L10.6301 5.36258L10.6266 5.36866C10.504 5.31441 10.3703 5.28982 10.2365 5.29688C10.1026 5.30394 9.97224 5.34246 9.85603 5.4093C9.73985 5.47658 9.64119 5.57033 9.56807 5.68293C9.49495 5.79553 9.44943 5.9238 9.43523 6.0573H9.42659V9.47298H6.03075V9.4797C5.89745 9.49404 5.76941 9.53958 5.65699 9.61263C5.54458 9.68569 5.45095 9.7842 5.38371 9.90018C5.31684 10.0165 5.27834 10.147 5.27133 10.281C5.26433 10.415 5.28901 10.5487 5.34339 10.6714L5.33603 10.6759L7.01475 13.5837L4.00867 15.3194L4.01219 15.3255C3.90394 15.4045 3.81584 15.508 3.75502 15.6275C3.6942 15.747 3.66237 15.8791 3.66211 16.0131C3.66211 16.2963 3.80131 16.5456 4.01315 16.7015L4.00867 16.7091L6.99235 18.4317L5.27491 21.4064L5.28067 21.4096C5.22642 21.5322 5.20183 21.6659 5.20889 21.7998C5.21595 21.9336 5.25447 22.064 5.32131 22.1802C5.38865 22.2963 5.48242 22.3949 5.59501 22.4679C5.70761 22.541 5.83584 22.5865 5.96931 22.6007V22.6093H9.41475V26.0448H9.42179C9.45123 26.3059 9.59747 26.5504 9.84227 26.6919C9.95868 26.7588 10.0893 26.7974 10.2234 26.8043C10.3575 26.8113 10.4914 26.7864 10.6141 26.7319L10.6183 26.7392L13.6522 24.9875L15.3322 27.8976L15.3383 27.8941C15.4174 28.0023 15.5208 28.0904 15.6403 28.1513C15.7598 28.2121 15.8919 28.2439 16.0259 28.2442C16.3091 28.2442 16.5584 28.105 16.7143 27.8935L16.7216 27.8976L18.4295 24.9395L21.3706 26.6375L21.3741 26.6314C21.4967 26.6856 21.6304 26.7102 21.7642 26.7032C21.8981 26.6961 22.0285 26.6576 22.1447 26.5907C22.2609 26.5235 22.3596 26.4298 22.4327 26.3172C22.5058 26.2045 22.5513 26.0763 22.5655 25.9427H22.5741V22.5274H25.9703V22.5207C26.1036 22.5063 26.2316 22.4608 26.344 22.3877C26.4564 22.3147 26.5501 22.2162 26.6173 22.1002C26.6842 21.9839 26.7227 21.8534 26.7297 21.7194C26.7367 21.5854 26.712 21.4516 26.6576 21.329L26.665 21.3248L24.9863 18.417L27.9923 16.6813L27.9888 16.6752C28.0971 16.5961 28.1852 16.4925 28.246 16.373C28.3068 16.2535 28.3386 16.1213 28.3389 15.9872ZM12.0122 20.8631C11.2986 21.2752 10.6515 21.3315 10.1015 21.1837L10.1786 20.3207C10.5952 20.4413 11.1338 20.4407 11.6426 20.1466C12.08 19.8941 12.1731 19.5818 12.0487 19.3664C11.6778 18.7245 9.81123 20.4 9.00899 19.0109C8.65443 18.3965 8.89155 17.5802 9.76099 17.0784C10.3475 16.7395 10.937 16.6359 11.4973 16.7623L11.3984 17.6016C10.9399 17.4979 10.4679 17.6003 10.0915 17.8173C9.75939 18.0093 9.65411 18.2618 9.78211 18.4835C10.1178 19.0647 12.0109 17.448 12.8064 18.8256C13.1965 19.5005 13.0035 20.2912 12.0122 20.8631ZM16.4739 18.1987L15.8807 17.7075L14.2976 18.6215L14.4259 19.3811L13.5347 19.8954L12.8259 15.3824L13.8112 14.8138L17.3651 17.6845L16.4739 18.1987ZM17.6749 17.5056L15.5434 13.8135L16.3351 13.3562L18.0672 16.3562L19.6282 15.4551L20.0279 16.1472L17.6749 17.5056ZM20.5588 15.8407L18.4272 12.1488L21.0397 10.64L21.4391 11.3319L19.6128 12.3866L20.0602 13.1616L21.8477 12.1293L22.2471 12.8211L20.4595 13.8531L20.9453 14.6947L22.7719 13.64L23.1716 14.3319L20.5588 15.8407Z" fill="white"/>
</svg>
