<svg width="32" height="32" viewBox="0 0 32 32" fill="none" xmlns="http://www.w3.org/2000/svg">
<path d="M30 32H2C1.4375 32 0.963542 31.8073 0.578125 31.4219C0.192708 31.0365 0 30.5625 0 30V10C0 9.45833 0.192708 8.98958 0.578125 8.59375C0.963542 8.19792 1.4375 8 2 8H12V10C12 11.3542 12.3698 12.3594 13.1094 13.0156C13.849 13.6719 14.8125 14 16 14C17.1667 14 18.125 13.6562 18.875 12.9688C19.625 12.2812 20 11.2917 20 10V8H30C30.5417 8 31.0104 8.19792 31.4062 8.59375C31.8021 8.98958 32 9.45833 32 10V30C32 30.5625 31.8073 31.0365 31.4219 31.4219C31.0365 31.8073 30.5625 32 30 32ZM11 25.1875V24.625C13 23.8125 14 21.6042 14 18C14 16.6875 13.5365 15.6927 12.6094 15.0156C11.6823 14.3385 10.4844 14 9.01562 14C7.54688 14 6.34375 14.3385 5.40625 15.0156C4.46875 15.6927 4 16.6875 4 18C4 21.5 5 23.6875 7 24.5625V25.1875C5.5625 25.4375 4.375 25.9062 3.4375 26.5938C2.5 27.2812 2.02083 28.0625 2 28.9375C2 29.1875 2.22396 29.3906 2.67188 29.5469C3.11979 29.7031 3.77604 29.8125 4.64062 29.875C5.50521 29.9375 6.21875 29.974 6.78125 29.9844C7.34375 29.9948 8.08333 30 9 30C9.91667 30 10.6562 29.9948 11.2188 29.9844C11.7812 29.974 12.4948 29.9375 13.3594 29.875C14.224 29.8125 14.8802 29.7031 15.3281 29.5469C15.776 29.3906 16 29.1875 16 28.9375C15.9792 28.0625 15.5052 27.2812 14.5781 26.5938C13.651 25.9062 12.4583 25.4375 11 25.1875ZM27 18H19C18.7292 18 18.4948 18.099 18.2969 18.2969C18.099 18.4948 18 18.7292 18 19C18 19.2708 18.099 19.5052 18.2969 19.7031C18.4948 19.901 18.7292 20 19 20H27C27.2708 20 27.5052 19.901 27.7031 19.7031C27.901 19.5052 28 19.2708 28 19C28 18.7292 27.901 18.4948 27.7031 18.2969C27.5052 18.099 27.2708 18 27 18ZM18 23C18 23.2708 18.099 23.5052 18.2969 23.7031C18.4948 23.901 18.7292 24 19 24H23C23.2708 24 23.5052 23.901 23.7031 23.7031C23.901 23.5052 24 23.2708 24 23C24 22.7292 23.901 22.4948 23.7031 22.2969C23.5052 22.099 23.2708 22 23 22H19C18.7292 22 18.4948 22.099 18.2969 22.2969C18.099 22.4948 18 22.7292 18 23ZM27 26H19C18.7292 26 18.4948 26.099 18.2969 26.2969C18.099 26.4948 18 26.7292 18 27C18 27.2708 18.099 27.5052 18.2969 27.7031C18.4948 27.901 18.7292 28 19 28H27C27.2708 28 27.5052 27.901 27.7031 27.7031C27.901 27.5052 28 27.2708 28 27C28 26.7292 27.901 26.4948 27.7031 26.2969C27.5052 26.099 27.2708 26 27 26ZM18 4V10C18 10.5625 17.8021 11.0365 17.4062 11.4219C17.0104 11.8073 16.5365 12 15.9844 12C15.4323 12 14.9635 11.8073 14.5781 11.4219C14.1927 11.0365 14 10.5625 14 10V4C13.4375 4 12.9635 3.80729 12.5781 3.42188C12.1927 3.03646 12 2.56771 12 2.01562C12 1.46354 12.1927 0.989583 12.5781 0.59375C12.9635 0.197917 13.4375 0 14 0H18C18.5417 0 19.0104 0.197917 19.4062 0.59375C19.8021 0.989583 20 1.46354 20 2.01562C20 2.56771 19.8073 3.03646 19.4219 3.42188C19.0365 3.80729 18.5625 4 18 4Z" fill="white"/>
</svg>
